<svg xmlns="http://www.w3.org/2000/svg" xmlns:xlink="http://www.w3.org/1999/xlink" width="200" zoomAndPan="magnify" viewBox="0 0 150 149.999998" height="200" preserveAspectRatio="xMidYMid meet" version="1.0"><defs><g/></defs><rect x="-15" width="180" fill="#ffffff" y="-15" height="179.999997" fill-opacity="1"/><rect x="-15" width="180" fill="#ffffff" y="-15" height="179.999997" fill-opacity="1"/><rect x="-15" width="180" fill="#ffffff" y="-15" height="179.999997" fill-opacity="1"/><path fill="#000000" d="M 76.867188 65.460938 C 79.601562 65.644531 81.601562 66.21875 81.601562 66.898438 C 81.601562 67.726562 78.644531 68.398438 75 68.398438 C 71.355469 68.398438 68.398438 67.726562 68.398438 66.898438 C 68.398438 66.21875 70.398438 65.644531 73.132812 65.460938 C 73.085938 65.371094 73.046875 65.277344 73.011719 65.179688 L 72.601562 63.976562 C 72.011719 62.261719 70.9375 60.757812 69.507812 59.648438 L 65.992188 56.917969 C 62.382812 54.117188 60.191406 49.867188 60 45.300781 C 60 37.015625 66.714844 30.300781 75 30.300781 C 83.285156 30.300781 90 37.015625 90 45.300781 C 89.808594 49.867188 87.617188 54.117188 84.007812 56.917969 L 80.492188 59.648438 C 79.0625 60.757812 77.988281 62.261719 77.398438 63.976562 L 76.988281 65.179688 C 76.953125 65.277344 76.914062 65.371094 76.867188 65.460938 Z M 55 15 L 95 15 C 100.523438 15 105 19.476562 105 25 L 105 65 C 105 70.523438 100.523438 75 95 75 L 55 75 C 49.476562 75 45 70.523438 45 65 L 45 25 C 45 19.476562 49.476562 15 55 15 Z M 86.25 20.183594 C 85.007812 20.183594 84 21.1875 84 22.433594 C 84 23.675781 85.007812 24.683594 86.25 24.683594 C 87.492188 24.683594 88.5 23.675781 88.5 22.433594 C 88.5 21.1875 87.492188 20.183594 86.25 20.183594 Z M 93.582031 20.183594 C 92.339844 20.183594 91.332031 21.1875 91.332031 22.433594 C 91.332031 23.675781 92.339844 24.683594 93.582031 24.683594 C 94.824219 24.683594 95.832031 23.675781 95.832031 22.433594 C 95.832031 21.1875 94.824219 20.183594 93.582031 20.183594 Z M 49.867188 65.882812 C 49.867188 67.867188 51.472656 69.472656 53.457031 69.472656 L 96.542969 69.472656 C 98.527344 69.472656 100.132812 67.867188 100.132812 65.882812 L 100.132812 28.410156 L 49.867188 28.410156 Z M 70.5 52.5 L 70.5 38.398438 L 67.5 38.398438 L 67.5 52.5 Z M 74.101562 38.398438 L 74.101562 52.5 L 77.152344 52.5 L 77.152344 47.953125 L 79.9375 47.953125 C 83.117188 47.953125 84.898438 45.898438 84.898438 43.203125 C 84.898438 40.546875 83.136719 38.398438 79.96875 38.398438 Z M 77.398438 40.800781 L 79.523438 40.800781 C 81.003906 40.800781 81.898438 41.597656 81.898438 43.050781 C 81.898438 44.738281 80.789062 45.300781 78.960938 45.300781 L 77.398438 45.300781 Z M 77.398438 40.800781 " fill-opacity="1" fill-rule="nonzero"/><g fill="#000000" fill-opacity="1"><g transform="translate(12.041016, 114.246989)"><g><path d="M 15.234375 0 L 15.234375 -2.015625 L 9.21875 -2.015625 L 9.21875 -10.09375 L 15.265625 -10.09375 L 15.265625 -12.125 L 1.15625 -12.125 L 1.15625 -10.09375 L 7.203125 -10.09375 L 7.203125 -2.015625 L 1.140625 -2.015625 L 1.140625 0 Z M 15.234375 0 "/></g></g></g><g fill="#000000" fill-opacity="1"><g transform="translate(28.43455, 114.246989)"><g><path d="M 11.859375 -10.09375 L 1.140625 -10.09375 L 1.140625 -12.125 L 11.796875 -12.125 C 12.390625 -12.125 12.90625 -12.039062 13.34375 -11.875 C 13.78125 -11.71875 14.140625 -11.5 14.421875 -11.21875 C 14.710938 -10.945312 14.929688 -10.625 15.078125 -10.25 C 15.222656 -9.882812 15.296875 -9.492188 15.296875 -9.078125 L 15.296875 -8.0625 C 15.296875 -7.675781 15.222656 -7.300781 15.078125 -6.9375 C 14.929688 -6.582031 14.710938 -6.265625 14.421875 -5.984375 C 14.140625 -5.703125 13.78125 -5.472656 13.34375 -5.296875 C 12.90625 -5.128906 12.390625 -5.046875 11.796875 -5.046875 L 3.15625 -5.046875 L 3.15625 0 L 1.140625 0 L 1.140625 -7.0625 L 11.859375 -7.0625 C 12.296875 -7.0625 12.640625 -7.191406 12.890625 -7.453125 C 13.148438 -7.710938 13.28125 -8.09375 13.28125 -8.59375 C 13.28125 -9.101562 13.148438 -9.476562 12.890625 -9.71875 C 12.640625 -9.96875 12.296875 -10.09375 11.859375 -10.09375 Z M 11.859375 -10.09375 "/></g></g></g><g fill="#000000" fill-opacity="1"><g transform="translate(44.868071, 114.246989)"><g/></g></g><g fill="#000000" fill-opacity="1"><g transform="translate(55.88373, 114.246989)"><g><path d="M 1.140625 -12.125 L 1.140625 -10.09375 L 7.203125 -10.09375 L 7.203125 0 L 9.21875 0 L 9.21875 -10.09375 L 15.28125 -10.09375 L 15.28125 -12.125 Z M 1.140625 -12.125 "/></g></g></g><g fill="#000000" fill-opacity="1"><g transform="translate(72.297257, 114.246989)"><g><path d="M 13.28125 -3.5 L 13.28125 -8.625 C 13.28125 -9.082031 13.132812 -9.441406 12.84375 -9.703125 C 12.550781 -9.960938 12.195312 -10.09375 11.78125 -10.09375 L 4.65625 -10.09375 C 4.25 -10.09375 3.894531 -9.960938 3.59375 -9.703125 C 3.300781 -9.441406 3.15625 -9.082031 3.15625 -8.625 L 3.15625 -3.5 C 3.15625 -3.101562 3.300781 -2.753906 3.59375 -2.453125 C 3.894531 -2.160156 4.25 -2.015625 4.65625 -2.015625 L 11.78125 -2.015625 C 12.195312 -2.015625 12.546875 -2.144531 12.828125 -2.40625 C 13.117188 -2.664062 13.269531 -3.03125 13.28125 -3.5 Z M 11.578125 0 L 4.859375 0 C 3.722656 0 2.816406 -0.269531 2.140625 -0.8125 C 1.472656 -1.363281 1.140625 -2.109375 1.140625 -3.046875 L 1.140625 -9.078125 C 1.140625 -10.015625 1.472656 -10.753906 2.140625 -11.296875 C 2.816406 -11.847656 3.722656 -12.125 4.859375 -12.125 L 11.578125 -12.125 C 12.710938 -12.125 13.613281 -11.847656 14.28125 -11.296875 C 14.957031 -10.753906 15.296875 -10.015625 15.296875 -9.078125 L 15.296875 -3.046875 C 15.296875 -2.109375 14.957031 -1.363281 14.28125 -0.8125 C 13.613281 -0.269531 12.710938 0 11.578125 0 Z M 11.578125 0 "/></g></g></g><g fill="#000000" fill-opacity="1"><g transform="translate(88.730778, 114.246989)"><g><path d="M 13.28125 -3.5 L 13.28125 -8.625 C 13.28125 -9.082031 13.132812 -9.441406 12.84375 -9.703125 C 12.550781 -9.960938 12.195312 -10.09375 11.78125 -10.09375 L 4.65625 -10.09375 C 4.25 -10.09375 3.894531 -9.960938 3.59375 -9.703125 C 3.300781 -9.441406 3.15625 -9.082031 3.15625 -8.625 L 3.15625 -3.5 C 3.15625 -3.101562 3.300781 -2.753906 3.59375 -2.453125 C 3.894531 -2.160156 4.25 -2.015625 4.65625 -2.015625 L 11.78125 -2.015625 C 12.195312 -2.015625 12.546875 -2.144531 12.828125 -2.40625 C 13.117188 -2.664062 13.269531 -3.03125 13.28125 -3.5 Z M 11.578125 0 L 4.859375 0 C 3.722656 0 2.816406 -0.269531 2.140625 -0.8125 C 1.472656 -1.363281 1.140625 -2.109375 1.140625 -3.046875 L 1.140625 -9.078125 C 1.140625 -10.015625 1.472656 -10.753906 2.140625 -11.296875 C 2.816406 -11.847656 3.722656 -12.125 4.859375 -12.125 L 11.578125 -12.125 C 12.710938 -12.125 13.613281 -11.847656 14.28125 -11.296875 C 14.957031 -10.753906 15.296875 -10.015625 15.296875 -9.078125 L 15.296875 -3.046875 C 15.296875 -2.109375 14.957031 -1.363281 14.28125 -0.8125 C 13.613281 -0.269531 12.710938 0 11.578125 0 Z M 11.578125 0 "/></g></g></g><g fill="#000000" fill-opacity="1"><g transform="translate(105.164298, 114.246989)"><g><path d="M 3.15625 -3.5 C 3.15625 -3.257812 3.207031 -3.046875 3.3125 -2.859375 C 3.425781 -2.679688 3.566406 -2.53125 3.734375 -2.40625 C 3.898438 -2.28125 4.082031 -2.179688 4.28125 -2.109375 C 4.488281 -2.046875 4.695312 -2.015625 4.90625 -2.015625 L 15.234375 -2.015625 L 15.234375 0 L 4.859375 0 C 3.722656 0 2.816406 -0.269531 2.140625 -0.8125 C 1.472656 -1.363281 1.140625 -2.109375 1.140625 -3.046875 L 1.140625 -12.125 L 3.15625 -12.125 Z M 3.15625 -3.5 "/></g></g></g><g fill="#000000" fill-opacity="1"><g transform="translate(121.53784, 114.246989)"><g><path d="M 11.90625 -2.015625 L 1.140625 -2.015625 L 1.140625 0 L 11.78125 0 C 12.988281 0 13.875 -0.242188 14.4375 -0.734375 C 15 -1.234375 15.28125 -1.984375 15.28125 -2.984375 L 15.28125 -4.15625 C 15.28125 -5.15625 14.976562 -5.890625 14.375 -6.359375 C 13.78125 -6.828125 12.894531 -7.0625 11.71875 -7.0625 L 11.71875 -5.0625 L 11.90625 -5.0625 C 12.789062 -5.0625 13.234375 -4.554688 13.234375 -3.546875 C 13.234375 -2.523438 12.789062 -2.015625 11.90625 -2.015625 Z M 4.515625 -10.09375 L 15.28125 -10.09375 L 15.28125 -12.125 L 4.65625 -12.125 C 2.3125 -12.125 1.140625 -11.128906 1.140625 -9.140625 L 1.140625 -7.953125 C 1.140625 -6.023438 2.328125 -5.0625 4.703125 -5.0625 L 4.703125 -7.0625 L 4.515625 -7.0625 C 3.628906 -7.0625 3.1875 -7.566406 3.1875 -8.578125 C 3.1875 -9.585938 3.628906 -10.09375 4.515625 -10.09375 Z M 4.515625 -10.09375 "/></g></g></g></svg>